<?xml version="1.0" encoding="utf-8"?>
<!-- Generator: Adobe Illustrator 27.0.1, SVG Export Plug-In . SVG Version: 6.00 Build 0)  -->
<svg version="1.1" id="Layer_1" xmlns="http://www.w3.org/2000/svg" xmlns:xlink="http://www.w3.org/1999/xlink" x="0px" y="0px"
	 viewBox="0 0 738 852" style="enable-background:new 0 0 738 852;" xml:space="preserve">
<style type="text/css">
	.st0{fill:#193E6D;}
	.st1{fill:#2A4F7C;}
	.st2{fill:#FCFCFC;}
	.st3{font-family:'OpenSans-Semibold';}
	.st4{font-size:120px;}
	.st5{fill:#F4D530;}
</style>
<polygon class="st0" points="718.9,224 369,22 369,22 19.1,224 19.1,628 369,830 718.9,628 "/>
<path class="st1" d="M736.4,638.4V214.1l-29.3-16.9L429.3,36.8L369,2l-60.3,34.8L30.9,197.2L1.6,214.1v424.3l29.3,16.9l281.3,162.4
	l56.9,32.8l56.9-32.8l281.3-162.4L736.4,638.4z M30.9,622.5V232.1L369,36.8l0,0L707.1,232v390.4L369,817.7L30.9,622.5z"/>
<text transform="matrix(1 0 0 1 128.4785 295.2599)" class="st2 st3 st4">calcofi4r</text>
<g id="calcofi_x5F_logo">
	<path class="st5" d="M578.6,498.9c-9.5,3.3-18.9,6.6-28.4,9.9c-16.3,5.7-32.5,11.4-48.8,17c-2.2,0.8-2.5,2-2.5,4
		c0.3,17-2.5,33.5-8.5,49.5c-9.3,24.5-24.5,44.6-45.6,60.2c-12,8.8-25,15.7-39.4,19.7c-2.9,0.8-3.8,2.4-3.9,5.3
		c-0.5,24.8-1.2,49.7-1.8,74.5c0,0.9-0.1,1.8-0.8,2.9c-1.6-4.4-3.3-8.8-4.9-13.3c-7-20-14-40.1-21-60.2c-0.8-2.4-1.9-3.4-4.7-3.4
		c-46.8-0.3-83.8-19.7-111-57.7c-7.7-10.7-13.5-22.5-17-35.3c-1.2-4.2-3.1-5.1-7.2-5.2c-24.8-0.5-49.6-1.4-74.7-2.7
		c4.3-1.6,8.7-3.3,13-4.9c19.7-7.2,39.3-14.5,59.1-21.5c2.8-1,3.7-2.3,3.7-5.3c-0.1-35.3,12-65.9,35.9-91.7
		c15.3-16.6,33.9-28.5,55.6-35.2c3.7-1.1,4.9-2.8,5-6.6c0.2-21.8,0.6-43.6,1-65.4c0.1-3.6,0-7.2,0-10.8c1.7,0,1.5,1.2,1.8,2
		c8.6,23.6,17.2,47.2,25.6,70.8c0.9,2.7,2.1,3.5,5,3.5c47.7,0,85.1,19.9,112.4,58.8c7.3,10.4,12.9,21.9,16.2,34.2
		c0.9,3.2,2.2,4.3,5.7,4.4c26.6,0.4,53.3,1,79.9,1.6C578.5,498.3,578.5,498.6,578.6,498.9z M366.5,659.2
		c65.1-1,123.5-49.5,126.4-123c2.7-68.4-48.6-128.7-122.7-131.2c-67.8-2.3-126.5,49.2-129.7,122.2
		C237.4,595.9,290.3,657.2,366.5,659.2z"/>
	<path class="st5" d="M253.5,454c-4.4,6.8-8,13.2-11.4,20.4c-5.7-7.5-11.1-14.7-17.2-22.7C235,452.5,243.9,453.2,253.5,454z"/>
	<path class="st5" d="M265.4,624.9c5.5,5.9,10.8,10.7,17,15.8c-8.8,3.7-17.2,7.3-26.5,11.2C259.2,642.5,262.2,634,265.4,624.9z"/>
	<path class="st5" d="M231,510.9c-0.7,7.9-1.6,15-1.3,23c-8.5-4.5-16.5-8.6-25.1-13.1C213.7,517.4,222.1,514.3,231,510.9z"/>
	<path class="st5" d="M243.9,593.4c-9.6,0.2-18.4-0.5-27.5-0.9c6.8-6.2,13.3-12.2,19.8-18.2C237.8,579.6,240.6,586.2,243.9,593.4z"
		/>
	<path class="st5" d="M260,618.8c-9,1.7-17.5,3.3-26.9,5.1c4.7-8.3,9.1-16.1,13.9-24.5C251.1,606.3,255.2,612.4,260,618.8z"/>
	<path class="st5" d="M507.4,612.8c-9.8-0.9-18.6-1.6-27.7-2.4c3.8-6.6,7.4-12.9,11.3-19.6C496.3,598,501.6,605,507.4,612.8z"/>
	<path class="st5" d="M450,422.4c8.8-3.7,17-7.2,26-11c-3.2,9.3-6.1,17.6-9.2,26.3C461.4,432.2,456.1,427.4,450,422.4z"/>
	<path class="st5" d="M211.6,485.5c9.5-1.3,17.9-2.8,26.8-3.2c-2.1,7.3-4,14.1-6.2,21.7C225.4,497.9,218.9,492,211.6,485.5z"/>
	<path class="st5" d="M274.5,399c8.3,4.7,15.6,8.9,23.5,13.4c-6.5,4.4-12.7,8.3-19.1,13.6C277.4,417,276,408.6,274.5,399z"/>
	<path class="st5" d="M247,423.1c9.2,2.7,17.5,5.1,26.3,7.6c-5.5,5.6-10.5,11-15.5,17.3C254.1,439.7,250.8,431.9,247,423.1z"/>
	<path class="st5" d="M503.9,531c8.1,4.3,15.8,8.4,24.2,12.9c-8.9,3.2-17,6.2-25.8,9.4C502.9,545.7,503.4,538.7,503.9,531z"/>
	<path class="st5" d="M412.4,377c1.6,9.2,3.3,17.3,4.2,26.1c-7.5-2.2-14.5-4.2-22-6.4C400.5,390.2,406.1,384,412.4,377z"/>
	<path class="st5" d="M516.1,471.7c-6.2,5.9-12.4,11.7-18.8,17.8c-2.5-6.2-5.2-12.7-7.8-19.1c8.9,0,17.5,0,26.2,0
		C515.8,470.8,516,471.2,516.1,471.7z"/>
	<path class="st5" d="M485.5,463c-4.2-6.7-8.1-12.6-12.9-18.5c8.8-1.7,17.1-3.4,26.5-5.3C494.4,447.5,490.1,455,485.5,463z"/>
	<path class="st5" d="M494.4,582.4c2.3-7.3,4.5-14,6.1-21.9c6.9,6.3,13.3,12.1,20.5,18.6C511.9,580.3,503.4,581.3,494.4,582.4z"/>
	<path class="st5" d="M446.4,391c-1,9.5-1.8,17.9-2.7,26.6c-6.6-4-12.8-7.8-19.9-11.2C431.2,401.4,438.3,396.5,446.4,391z"/>
	<path class="st5" d="M285.9,672.1c0.9-9.4,1.6-17.8,2.4-26.8c6.6,3.9,12.7,7.9,20.1,11.4C300.9,661.8,293.8,666.7,285.9,672.1z"/>
	<path class="st5" d="M337.5,666.7c-6.1,6.8-11.8,13.1-18,19.9c-1.4-9.3-2.8-17.8-4.1-26.7C322.6,662.6,329.7,664.6,337.5,666.7z"/>
	<path class="st5" d="M364.1,394.2c4.4-8.1,8.6-15.6,13.1-23.9c3.1,8.7,6,16.5,9.1,25.3C378.9,394.3,371.9,394.4,364.1,394.2z"/>
	<path class="st5" d="M485.1,641.3c-9-2.7-17.1-5.1-25.7-7.7c5.4-5.4,10.2-10.5,15.3-16.8C478.2,625.1,481.5,632.8,485.1,641.3z"/>
	<path class="st5" d="M457.2,665.1c-8.1-4.7-15.2-8.9-22.8-13.3c6.7-4.2,12.9-8.1,19-13.3C454.7,647.6,455.9,655.9,457.2,665.1z"/>
	<path class="st5" d="M305.4,408.5c0-8.9,0.2-17.2,1-26.3c6.5,6.1,12.7,11.8,19.6,18.3C318.5,402.4,312.3,405.5,305.4,408.5z"/>
	<path class="st5" d="M354.7,692.9c-3.1-8.6-5.9-16.3-8.9-24.6c7.4,0.4,14.2,1.7,21.9,1.1C363.3,677.5,359.2,684.8,354.7,692.9z"/>
	<path class="st5" d="M406.5,663.8c7.3-2.3,13.4-4.9,20-7.9c0,8.7-0.3,16.8-1.2,25.7C418.9,675.6,413,669.9,406.5,663.8z"/>
	<path class="st5" d="M483.4,532.1c0.2,64.9-52.2,117.5-117.8,117.3c-64.1-0.3-115.9-52.9-115.9-118c0-64,52.4-116.7,116.6-116.9
		C431,414.2,483.2,466.7,483.4,532.1z M429.9,623c0.9,1.7,2,1.4,3.3,0.4c12.3-9,22.2-20.1,30-33.2c0.9-1.5,0.8-2.5-0.5-3.5
		c1.5,0.6,2.5,0.2,3.3-1.3c7.3-14.3,12.3-29.3,13.2-45.3c2-36.1-10.2-66.9-36.5-91.6c-19.5-18.3-43.1-28-69.6-29.8
		c-22.2-1.6-42.9,4-62.2,14.9c-16.9,9.5-30.4,22.7-40.4,39.3c-0.9,1.6-2.5,3.1,0.2,4.6c-2.8-1.4-3.2,1-4,2.6
		c-11.1,21.6-15.1,44.5-11.6,68.6c1.2,8.4,3.2,16.6,7.1,24.7c14-9,27.6-17.7,41.6-26.8c1.4,6.5,3.9,12.1,6.8,17.9
		c-16.5,3.1-32.3,6.2-48.6,9.3c6.1,15.4,14.5,28.6,26.1,39.5c25.5,23.9,55.7,35.1,90.7,31.5c17.9-1.8,34.2-8.1,49.3-17.8
		c1.4-0.9,2.5-1.8,1.5-3.6C429.7,623.2,429.8,623.1,429.9,623z"/>
	<path class="st5" d="M418.9,566.1c-7.3-0.4-14-3.6-21.7-4.2c1.2,7.4,4.2,14,6.4,21.9c-6.7-4.6-12.6-8.7-19-13.1
		c-0.7,7.6-1.4,14.6-2.2,23c-4.6-6.8-8.6-12.7-13-19.1c-3.4,7.2-6.5,13.6-9.8,20.7c-3-7.4-3.4-14.8-6-22.6
		c-5.6,5.2-10.7,10-16.5,15.3c0.3-8,2.3-15,3.4-23.3c-7.6,3-14.3,5.7-22.1,8.7c4-7.1,7.6-13.4,11.5-20.2c-7.7,0-14.9,0-23.1,0
		c6.4-5.3,11.9-10,17.7-14.9c-6.9-3.6-13.9-5.3-20.6-9.1c6.9-1.9,13.9-3.9,21.7-6c-3.8-3.4-7-6.3-10.2-9.1c-0.2-0.2-0.4-0.3-0.7-0.5
		c-13.7-9.1-26.1-19.9-38.4-30.7c-2-1.7-4.2-3.1-5.6-5.4c5.7,0.5,10.7,3.3,16.1,4.9c8.3,2.5,16.5,5.3,24.7,8
		c1.4,0.5,2.7,1.1,4.4,1.8c-3.6,4.8-6.3,9.4-8.6,15.1c7.9,0.6,15.5,1.1,24,1.8c-3.6-7.2-6.9-13.7-10.6-20.9c7.8,2.5,14,6.7,21.6,8.8
		c0.2-7.5-2.2-14.3-2.2-22.3c5.5,5.7,10.4,10.9,15.9,16.7c2.1-7.8,4.1-14.8,6.2-22.5c4.2,6.7,5.6,14.2,9.7,21.1
		c4.6-6.2,8.8-12,13.1-17.7c0.3,0.1,0.6,0.1,0.9,0.2c0,7.2,0,14.4,0,22.6c7.6-3.8,13.4-8.7,19.7-12.5l-0.1-0.1
		c-0.6,5.1-3.1,9.6-4.8,14.4c-0.8,2.2-1.4,4.4-2.5,7.6c7.7-1.4,14.7-2.7,22.8-4.1c-5.4,6.2-10,11.6-15.1,17.5c7.8,1.5,15,3,23.1,4.6
		c-7.2,3.8-13.6,7.2-20.7,10.9c6.6,4.2,12.7,8,19.6,12.3c-8,1.4-15.3,1.4-22.7,3.3C410.2,554.8,414.5,560.4,418.9,566.1z"/>
	<path class="st5" d="M429,517.4c-1.5-6.5-4.1-12.2-7.3-18.5c16.1-2.8,31.9-5.6,47.6-8.4c0.1,0.3,0.2,0.5,0.4,0.8
		C456.3,499.9,442.9,508.5,429,517.4z"/>
	<path class="st5" d="M366.4,467.4c-6.8,0.3-12.9,1.2-19.4,2.8c0.5-15.9,1-31.4,1.5-46.8c0.4-0.1,0.9-0.3,1.3-0.4
		C355.3,437.6,360.8,452.2,366.4,467.4z"/>
	<path class="st5" d="M430.5,526.3c15.6,4.3,30.8,8.5,46,12.7c-15.4,3.4-30.9,4.9-47.2,7.1C430.5,539.5,430.6,533.1,430.5,526.3z"/>
	<path class="st5" d="M399,426c-1.4,15.8-2.9,31.6-4.3,48c-6.1-3.1-12.2-4.5-18.8-6c7.5-14.2,14.9-28.2,22.3-42.2
		C398.5,425.8,398.8,425.9,399,426z"/>
	<path class="st5" d="M462.8,586.8c-6.7-1-12.8-4.1-19.2-6.1c-8.6-2.7-17.1-5.9-25.5-8.8c-0.8-2.3,3.5-3.6,0.7-5.8
		c1.7,1.2,2.5-0.1,3.1-1.3c1.6-3.2,3.2-6.4,4.8-9.8c1.9,0.6,3.2,2.3,4.7,3.6c9.6,8.4,19.1,16.9,28.7,25.3
		C461.1,584.6,461.9,585.7,462.8,586.8z"/>
	<path class="st5" d="M405.6,482.4c0.8-2.2-2-2.2-2.4-4.3c11.9-8.8,24.2-17.8,36.4-26.8c0.4,0.4,0.8,0.7,1.2,1.1
		c-8,12.8-15.9,25.7-24.2,39.1c-2.5-2.6-4.5-4.9-6.6-6.9C408.8,483.4,407.8,481.5,405.6,482.4C405.6,482.3,405.6,482.4,405.6,482.4z
		"/>
	<path class="st5" d="M303.7,440.9c9.5,7.9,17.8,17.1,26.8,25.5c2.4,2.2,4.9,4.4,8,7.2c-6.1,3.3-10.9,6.8-16,10.9
		c-3.7-8.3-7.5-16.2-10.8-24.3C309,453.8,305.2,447.9,303.7,440.9L303.7,440.9z"/>
	<path class="st5" d="M303.7,440.9c-0.2-0.1-0.4-0.2-0.6-0.4C303.8,440,303.6,440.6,303.7,440.9
		C303.7,440.9,303.7,440.9,303.7,440.9z"/>
	<path class="st5" d="M429.6,623.3c-11.7-10.6-22.6-22-34.2-33.3c5.7-3.3,10.7-6.7,15.6-11.1c3.5,7.9,7,15.3,10.1,22.9
		c2.9,7.1,6.6,13.9,8.9,21.3C429.8,623.1,429.7,623.2,429.6,623.3z"/>
	<path class="st5" d="M367.5,596.7c6.8-0.2,12.6-1.6,19-2.9c-0.6,16.1-1.2,31.9-1.7,47.7c-0.3,0.1-0.6,0.2-0.9,0.3
		C378.5,626.9,373.1,612.1,367.5,596.7z"/>
	<path class="st5" d="M339,590.5c6.2,3.2,12,4.2,18.3,5.7c-7.6,14.2-15,28.1-22.4,42c-0.3-0.1-0.6-0.1-0.8-0.2
		C335.7,622.4,337.3,606.8,339,590.5z"/>
	<path class="st5" d="M256.1,523.3c15.7-1.9,31.5-3.7,47.6-5.6c-1.2,6.5-1.7,12.3-1.6,19c-15.6-4.2-30.8-8.3-45.9-12.3
		C256.2,524,256.1,523.7,256.1,523.3z"/>
	<path class="st5" d="M330.1,585.3c-12.8,9.1-24.5,18.6-37.1,26.9c-0.3-0.3-0.6-0.7-0.9-1c7.9-12.7,15.9-25.3,23.9-38.3
		C320.6,577.5,324.6,581.8,330.1,585.3z"/>
</g>
</svg>
